<svg width="16" height="16" viewBox="0 0 16 16" fill="none" xmlns="http://www.w3.org/2000/svg">
<path d="M14.9308 16C13.2449 16 11.5167 15.5779 9.74615 14.7337C7.97563 13.8894 6.33076 12.7045 4.81152 11.1789C3.29229 9.6532 2.11057 8.00832 1.26635 6.24422C0.422117 4.48012 0 2.75512 0 1.06922C0 0.763725 0.1 0.509149 0.3 0.305499C0.5 0.101833 0.75 0 1.05 0H3.52308C3.79488 0 4.03206 0.0855745 4.23463 0.256725C4.43719 0.427875 4.57437 0.647425 4.64615 0.915375L5.1423 3.3C5.18847 3.57948 5.18013 3.82372 5.1173 4.0327C5.05448 4.24167 4.94359 4.41282 4.78463 4.54615L2.59037 6.5923C3.00064 7.33718 3.45417 8.02917 3.95098 8.66827C4.44776 9.30737 4.97756 9.91283 5.54037 10.4846C6.12116 11.0654 6.74616 11.6054 7.41537 12.1048C8.08461 12.6042 8.81922 13.0756 9.61922 13.5192L11.7577 11.3423C11.9205 11.1667 12.1035 11.051 12.3067 10.9952C12.5099 10.9394 12.7346 10.9282 12.9808 10.9615L15.0846 11.3923C15.3564 11.459 15.5769 11.5958 15.7462 11.8029C15.9154 12.0099 16 12.2474 16 12.5154V14.95C16 15.25 15.8982 15.5 15.6945 15.7C15.4909 15.9 15.2363 16 14.9308 16ZM2.12115 5.65385L4.04037 3.88845C4.10448 3.83717 4.14614 3.76666 4.16537 3.67693C4.18461 3.58718 4.18141 3.50384 4.15577 3.42693L3.71152 1.3077C3.68589 1.20513 3.64103 1.12821 3.57693 1.07693C3.51283 1.02564 3.42949 1 3.32693 1H1.275C1.19808 1 1.13398 1.02564 1.0827 1.07693C1.03142 1.12821 1.00578 1.19231 1.00578 1.26922C1.02501 1.95256 1.13206 2.66603 1.32692 3.40963C1.52179 4.15321 1.78653 4.90128 2.12115 5.65385ZM10.5712 13.9884C11.2468 14.3231 11.967 14.5705 12.7317 14.7308C13.4965 14.891 14.1628 14.9769 14.7308 14.9884C14.8077 14.9884 14.8718 14.9628 14.9231 14.9116C14.9744 14.8603 15 14.7962 15 14.7192V12.7116C15 12.609 14.9744 12.5257 14.9231 12.4616C14.8718 12.3974 14.7949 12.3526 14.6923 12.3269L12.8423 11.9481C12.7654 11.9224 12.6981 11.9192 12.6404 11.9385C12.5827 11.9577 12.5218 11.9994 12.4577 12.0635L10.5712 13.9884Z" fill="black"/>
</svg>
