<svg data-v-9c56b440="" width="20" height="18" viewBox="0 0 20 18" fill="none" xmlns="http://www.w3.org/2000/svg" role="img" aria-label="Brukermenu "><path data-v-9c56b440="" d="M10.0047 11.2199C12.9647 11.2199 15.3847 8.79994 15.3847 5.81994C15.3847 2.83994 12.9647 0.419941 10.0047 0.419941C7.04469 0.419941 4.62469 2.83994 4.62469 5.81994C4.62469 8.79994 7.04469 11.2199 10.0047 11.2199ZM10.0047 1.99992C12.0847 1.99992 13.7847 3.69992 13.7847 5.79992C13.7847 7.89992 12.0847 9.59992 10.0047 9.59992C7.92469 9.59992 6.22469 7.89992 6.22469 5.79992C6.22469 3.69992 7.92469 1.99992 10.0047 1.99992ZM12.5047 11.7399C12.2447 11.6599 11.9447 11.7199 11.7447 11.8999L10.0047 13.3799L8.26469 11.8999C8.04469 11.7199 7.76469 11.6599 7.50469 11.7399C6.38469 12.0999 0.804688 14.0199 0.804688 16.7999C0.804688 17.2399 1.16469 17.5999 1.60469 17.5999H18.4047C18.8447 17.5999 19.2047 17.2399 19.2047 16.7999C19.2047 14.0199 13.6247 12.0999 12.5047 11.7399ZM2.82469 15.9999C3.70469 15.0599 5.82469 14.0199 7.58469 13.4199L9.48469 15.0399C9.78469 15.2999 10.2247 15.2999 10.5247 15.0399L12.4247 13.4199C14.1847 14.0399 16.3047 15.0799 17.1847 15.9999H2.82469Z" fill="#01332A"></path></svg>