<svg width="16" height="19" viewBox="0 0 16 19" fill="none" xmlns="http://www.w3.org/2000/svg">
<path d="M8 9.5C10.525 9.5 12.5714 7.37363 12.5714 4.75C12.5714 2.12637 10.525 0 8 0C5.475 0 3.42857 2.12637 3.42857 4.75C3.42857 7.37363 5.475 9.5 8 9.5ZM11.2 10.6875H10.6036C9.81071 11.066 8.92857 11.2812 8 11.2812C7.07143 11.2812 6.19286 11.066 5.39643 10.6875H4.8C2.15 10.6875 0 12.9215 0 15.675V17.2188C0 18.2021 0.767857 19 1.71429 19H14.2857C15.2321 19 16 18.2021 16 17.2188V15.675C16 12.9215 13.85 10.6875 11.2 10.6875Z" fill="#005646"/>
</svg>
