<svg width="19" height="19" viewBox="0 0 19 19" fill="none" xmlns="http://www.w3.org/2000/svg">
<path d="M18.737 10.3405L12.4034 18.6516C11.8379 19.3937 10.8577 18.8742 10.8577 17.8106V13.0614H5.73044C5.22903 13.0614 4.82564 12.532 4.82564 11.8741V7.12487C4.82564 6.46691 5.22903 5.93757 5.73044 5.93757H10.8577V1.18835C10.8577 0.129677 11.8341 -0.394715 12.4034 0.347349L18.737 8.65847C19.0877 9.1235 19.0877 9.87545 18.737 10.3405ZM7.23845 18.4042V16.4254C7.23845 16.0989 7.03487 15.8318 6.78605 15.8318H3.61923C2.95193 15.8318 2.41282 15.1243 2.41282 14.2487V4.75026C2.41282 3.87463 2.95193 3.16719 3.61923 3.16719H6.78605C7.03487 3.16719 7.23845 2.90005 7.23845 2.57354V0.594704C7.23845 0.268195 7.03487 0.00105218 6.78605 0.00105218H3.61923C1.62111 0.00105218 0 2.1283 0 4.75026V14.2487C0 16.8706 1.62111 18.9979 3.61923 18.9979H6.78605C7.03487 18.9979 7.23845 18.7308 7.23845 18.4042Z" fill="#005646"/>
</svg>
