<svg xmlns="http://www.w3.org/2000/svg" width="14" height="21" viewBox="0 0 14 21" fill="none"><link xmlns="" type="text/css" rel="stylesheet" id="dark-mode-custom-link"/><link xmlns="" type="text/css" rel="stylesheet" id="dark-mode-general-link"/><style xmlns="" lang="en" type="text/css" id="dark-mode-custom-style"/><style xmlns="" lang="en" type="text/css" id="dark-mode-native-style"/><style xmlns="" lang="en" type="text/css" id="dark-mode-native-sheet"/>
<path d="M0.447134 13.4932C0.16724 13.7985 0.187867 14.273 0.493207 14.5529C0.798546 14.8328 1.27297 14.8121 1.55287 14.5068L0.447134 13.4932ZM12.7493 1.96742C12.7313 1.5536 12.3812 1.23272 11.9674 1.25071L5.22379 1.54391C4.80997 1.5619 4.48909 1.91196 4.50708 2.32578C4.52507 2.7396 4.87513 3.06049 5.28895 3.04249L11.2833 2.78187L11.5439 8.77621C11.5619 9.19003 11.912 9.51091 12.3258 9.49292C12.7396 9.47493 13.0605 9.12487 13.0425 8.71105L12.7493 1.96742ZM1.55287 14.5068L12.5529 2.50679L11.4471 1.49321L0.447134 13.4932L1.55287 14.5068Z" fill="#FFFFFF"/>
</svg>