<svg width="24" height="24" viewBox="0 0 24 24" fill="none" xmlns="http://www.w3.org/2000/svg">
<path d="M12 24C18.6274 24 24 18.6274 24 12C24 5.37258 18.6274 0 12 0C5.37258 0 0 5.37258 0 12C0 18.6274 5.37258 24 12 24Z" fill="#EDDDFF"/>
<path d="M12 19.6364C12.6025 19.6364 13.0909 19.148 13.0909 18.5455C13.0909 17.943 12.6025 17.4546 12 17.4546C11.3975 17.4546 10.9091 17.943 10.9091 18.5455C10.9091 19.148 11.3975 19.6364 12 19.6364Z" fill="#272727"/>
<path d="M9.65784 6.06524C11.8178 5.1107 14.6127 5.22415 15.5673 6.76888C16.5218 8.31361 15.8629 10.1103 14.2266 11.4969C12.5902 12.8834 12 13.6362 12 14.7271" stroke="#272727" stroke-width="2" stroke-linecap="round" stroke-linejoin="round"/>
</svg>
