<svg width="21" height="17" viewBox="0 0 21 17" fill="none" xmlns="http://www.w3.org/2000/svg">
<path d="M10.2564 0.181641L19.9562 4.95472C20.1227 5.05522 20.2572 5.17933 20.3594 5.32704C20.4617 5.47476 20.5128 5.6352 20.5128 5.80835V15.4744C20.5128 15.9091 20.3371 16.272 19.9858 16.5632C19.6344 16.8544 19.1964 17 18.6719 17H1.84088C1.31638 17 0.878443 16.8544 0.527066 16.5632C0.175689 16.272 0 15.9091 0 15.4744V5.80835C0 5.6352 0.0511302 5.47476 0.15339 5.32704C0.25567 5.17933 0.390085 5.05522 0.556638 4.95472L10.2564 0.181641ZM10.2564 10.0583L19.1453 5.66668L10.2564 1.27502L1.36752 5.66668L10.2564 10.0583ZM10.2564 11.1517L1.1396 6.65471V15.4744C1.1396 15.6439 1.20535 15.7831 1.33684 15.8921C1.46833 16.0011 1.63634 16.0556 1.84088 16.0556H18.6719C18.8765 16.0556 19.0445 16.0011 19.176 15.8921C19.3075 15.7831 19.3732 15.6439 19.3732 15.4744V6.65471L10.2564 11.1517ZM10.2564 16.0556H19.3732H1.1396H10.2564Z" fill="black"/>
</svg>
