<svg width="60" height="60" viewBox="0 0 60 60" fill="none" xmlns="http://www.w3.org/2000/svg">
<path d="M58.125 3.125H28.125V29.375L39.375 20.625H58.125V3.125Z" stroke="#00211B" stroke-width="3" stroke-miterlimit="10" stroke-linecap="round" stroke-linejoin="round"/>
<path d="M25.625 55.215C25.625 53.705 24.9638 52.2687 23.78 51.33C21.9725 49.895 18.8375 48.125 14.375 48.125C9.9125 48.125 6.7775 49.895 4.97 51.33C3.78625 52.2687 3.125 53.705 3.125 55.215V58.125H25.625V55.215Z" stroke="#00211B" stroke-width="3" stroke-miterlimit="10" stroke-linecap="round" stroke-linejoin="round"/>
<path d="M14.375 41.875C17.8268 41.875 20.625 39.0768 20.625 35.625C20.625 32.1732 17.8268 29.375 14.375 29.375C10.9232 29.375 8.125 32.1732 8.125 35.625C8.125 39.0768 10.9232 41.875 14.375 41.875Z" stroke="#00211B" stroke-width="3" stroke-miterlimit="10" stroke-linecap="round" stroke-linejoin="round"/>
<path d="M58.125 55.215C58.125 53.705 57.4637 52.2687 56.28 51.33C54.4725 49.895 51.3375 48.125 46.875 48.125C42.4125 48.125 39.2775 49.895 37.47 51.33C36.2862 52.2687 35.625 53.705 35.625 55.215V58.125H58.125V55.215Z" stroke="#00211B" stroke-width="3" stroke-miterlimit="10" stroke-linecap="round" stroke-linejoin="round"/>
<path d="M46.875 41.875C50.3268 41.875 53.125 39.0768 53.125 35.625C53.125 32.1732 50.3268 29.375 46.875 29.375C43.4232 29.375 40.625 32.1732 40.625 35.625C40.625 39.0768 43.4232 41.875 46.875 41.875Z" stroke="#00211B" stroke-width="3" stroke-miterlimit="10" stroke-linecap="round" stroke-linejoin="round"/>
</svg>
