<svg width="862" height="122" viewBox="0 0 862 122" fill="none" xmlns="http://www.w3.org/2000/svg">
<g clip-path="url(#clip0_16477_8856)">
<path d="M813.095 90.2165C808.925 91.9463 804.586 92.7163 800.346 92.6263C800.456 92.6263 800.576 92.6263 800.686 92.6163C804.426 92.5163 808.205 91.7364 811.875 90.2165C828.004 83.5369 835.663 65.0481 828.984 48.9292C824.064 37.06 812.745 29.7705 800.666 29.4305C800.526 29.4205 800.376 29.4205 800.226 29.4205C812.915 29.1105 825.064 36.51 830.204 48.9292C836.883 65.0481 829.224 83.5369 813.095 90.2165Z" fill="#00211B"/>
<path d="M223.774 3.72363L193.856 85.7882L164.178 3.72363H130.59L175.877 118.316H211.475L256.302 3.72363H223.774Z" fill="#00211B"/>
<path d="M447.599 0.632812C434.59 0.632812 422.041 5.01252 413.891 17.1917V3.71261H383.854V118.315H414.701V55.4992C414.701 38.2403 425.701 29.6209 438.95 29.6209C453.009 29.6209 461.298 38.7203 461.298 55.2792V118.305H492.166V45.3398C492.176 18.7316 473.618 0.632812 447.599 0.632812Z" fill="#00211B"/>
<path d="M713.222 3.72363L683.304 85.7882L653.626 3.72363H620.038L665.325 118.316H700.922L745.75 3.72363H713.222Z" fill="#00211B"/>
<path d="M312.068 0.683594C278.751 0.683594 251.742 27.6918 251.742 61.0096C251.742 94.3274 278.751 121.336 312.068 121.336C345.386 121.336 372.384 94.3274 372.384 61.0096C372.384 27.6918 345.386 0.683594 312.068 0.683594ZM312.068 92.6175C294.619 92.6175 280.46 78.4584 280.46 61.0096C280.46 43.5608 294.619 29.4017 312.068 29.4017C329.517 29.4017 343.666 43.5608 343.666 61.0096C343.666 78.4584 329.517 92.6175 312.068 92.6175Z" fill="#00211B"/>
<path d="M564.152 0.683594C530.834 0.683594 503.836 27.6918 503.836 61.0096C503.836 94.3274 530.834 121.336 564.152 121.336C597.469 121.336 624.478 94.3274 624.478 61.0096C624.478 27.6918 597.459 0.683594 564.152 0.683594ZM564.152 92.6175C546.703 92.6175 532.554 78.4584 532.554 61.0096C532.554 43.5608 546.703 29.4017 564.152 29.4017C581.61 29.4017 595.76 43.5608 595.76 61.0096C595.76 78.4584 581.61 92.6175 564.152 92.6175Z" fill="#00211B"/>
<path d="M90.013 3.70261V16.3618C82.4335 7.02239 71.4343 0.632812 55.7153 0.632812C24.1274 0.632812 0.239014 26.5411 0.239014 60.9588C0.239014 95.3665 24.1274 121.275 55.6953 121.265C71.4343 121.265 82.5435 114.875 89.9931 105.646V118.305H120.161V3.70261H90.013ZM70.4943 90.2169C66.8246 91.7368 63.0448 92.5167 59.3051 92.6167C46.5759 92.9867 34.3667 85.5872 29.2071 73.118C22.5275 56.9891 30.177 38.5003 46.306 31.8207C50.5557 30.0609 54.9754 29.3009 59.2851 29.4309C71.3643 29.7709 82.6835 37.0604 87.6032 48.9296C94.2828 65.0485 86.6233 83.5373 70.4943 90.2169Z" fill="#00211B"/>
<path d="M831.394 3.70261V16.3618C823.814 7.02239 812.815 0.632812 797.096 0.632812C765.508 0.632812 741.62 26.5411 741.62 60.9588C741.62 95.3665 765.508 121.275 797.076 121.265C812.815 121.265 823.924 114.875 831.374 105.646V118.305H861.542V3.70261H831.394ZM800.176 92.6267C787.627 92.7867 775.678 85.4172 770.588 73.118C763.908 56.9891 771.558 38.5003 787.687 31.8207C791.756 30.1309 795.976 29.3709 800.116 29.4209H800.226C800.376 29.4209 800.526 29.4209 800.666 29.4309C812.745 29.7709 824.064 37.0604 828.984 48.9296C835.664 65.0485 828.004 83.5373 811.875 90.2169C808.205 91.7368 804.426 92.5167 800.686 92.6167C800.576 92.6267 800.456 92.6267 800.346 92.6267H800.176Z" fill="#00211B"/>
</g>
<defs>
<clipPath id="clip0_16477_8856">
<rect width="861.303" height="120.702" fill="white" transform="translate(0.239014 0.632812)"/>
</clipPath>
</defs>
</svg>
